<?xml version="1.0" encoding="UTF-8"?>
<svg width="246px" height="80px" viewBox="0 0 246 80" version="1.1" xmlns="http://www.w3.org/2000/svg" xmlns:xlink="http://www.w3.org/1999/xlink">
    <!-- Generator: Sketch 41 (35326) - http://www.bohemiancoding.com/sketch -->
    <title>photos</title>
    <desc>Created with Sketch.</desc>
    <defs></defs>
    <g id="Page-1" stroke="none" stroke-width="1" fill="none" fill-rule="evenodd">
        <path d="M20.864,55.288 C24.5600185,55.288 27.6679874,53.888014 30.188,51.088 C32.7080126,48.3439863 33.968,44.7880218 33.968,40.42 C33.968,36.1079784 32.7080126,32.552014 30.188,29.752 C27.6679874,26.951986 24.5600185,25.552 20.864,25.552 C17.1119812,25.552 13.9760126,26.951986 11.456,29.752 C8.99198768,32.552014 7.76,36.1079784 7.76,40.42 C7.76,44.7880218 8.99198768,48.371986 11.456,51.172 C13.9760126,53.9160137 17.1119812,55.288 20.864,55.288 Z M22.124,62.344 C19.0999849,62.344 16.3420125,61.7000064 13.85,60.412 C11.3579875,59.1239936 9.44000672,57.4160106 8.096,55.288 L7.76,55.288 L8.096,61 L8.096,79.144 L0.368,79.144 L0.368,19.84 L7.76,19.84 L7.76,25.552 L8.096,25.552 C9.44000672,23.4239894 11.3579875,21.7160064 13.85,20.428 C16.3420125,19.1399936 19.0999849,18.496 22.124,18.496 C27.5560272,18.496 32.1479812,20.6239787 35.9,24.88 C39.7640193,29.1920216 41.696,34.3719698 41.696,40.42 C41.696,46.5240305 39.7640193,51.7039787 35.9,55.96 C32.1479812,60.2160213 27.5560272,62.344 22.124,62.344 Z M47.5889231,0.856 L55.3169231,0.856 L55.3169231,19.84 L54.9809231,25.552 L55.3169231,25.552 C56.492929,23.5359899 58.2989109,21.8560067 60.7349231,20.512 C63.1709353,19.1679933 65.7049099,18.496 68.3369231,18.496 C73.3769483,18.496 77.2549095,19.9379856 79.9709231,22.822 C82.6869367,25.7060144 84.0449231,29.8079734 84.0449231,35.128 L84.0449231,61 L76.3169231,61 L76.3169231,36.64 C76.3169231,29.247963 73.0409559,25.552 66.4889231,25.552 C63.3529074,25.552 60.7069339,26.853987 58.5509231,29.458 C56.3949123,32.062013 55.3169231,35.0999826 55.3169231,38.572 L55.3169231,61 L47.5889231,61 L47.5889231,0.856 Z M90.4418462,40.42 C90.4418462,34.0919684 92.4298263,28.8560207 96.4058462,24.712 C100.437866,20.5679793 105.505816,18.496 111.609846,18.496 C117.713877,18.496 122.753826,20.5679793 126.729846,24.712 C130.761866,28.8560207 132.777846,34.0919684 132.777846,40.42 C132.777846,46.8040319 130.761866,52.0399796 126.729846,56.128 C122.753826,60.2720207 117.713877,62.344 111.609846,62.344 C105.505816,62.344 100.437866,60.2720207 96.4058462,56.128 C92.4298263,51.9839793 90.4418462,46.7480316 90.4418462,40.42 Z M98.1698462,40.42 C98.1698462,44.8440221 99.4578333,48.4279863 102.033846,51.172 C104.609859,53.9160137 107.801827,55.288 111.609846,55.288 C115.417865,55.288 118.609833,53.9160137 121.185846,51.172 C123.761859,48.4279863 125.049846,44.8440221 125.049846,40.42 C125.049846,36.0519782 123.761859,32.4960137 121.185846,29.752 C118.553833,26.951986 115.361865,25.552 111.609846,25.552 C107.857827,25.552 104.665859,26.951986 102.033846,29.752 C99.4578333,32.4960137 98.1698462,36.0519782 98.1698462,40.42 Z M154.546769,61.672 C151.186752,61.672 148.40078,60.6360104 146.188769,58.564 C143.976758,56.4919896 142.84277,53.6080185 142.786769,49.912 L142.786769,26.896 L135.562769,26.896 L135.562769,19.84 L142.786769,19.84 L142.786769,7.24 L150.514769,7.24 L150.514769,19.84 L160.594769,19.84 L160.594769,26.896 L150.514769,26.896 L150.514769,47.392 C150.514769,50.1360137 151.046764,51.9979951 152.110769,52.978 C153.174775,53.9580049 154.378763,54.448 155.722769,54.448 C156.338772,54.448 156.940766,54.3780007 157.528769,54.238 C158.116772,54.0979993 158.662767,53.9160011 159.166769,53.692 L161.602769,60.58 C159.586759,61.3080036 157.234783,61.672 154.546769,61.672 Z M164.891692,40.42 C164.891692,34.0919684 166.879673,28.8560207 170.855692,24.712 C174.887713,20.5679793 179.955662,18.496 186.059692,18.496 C192.163723,18.496 197.203673,20.5679793 201.179692,24.712 C205.211713,28.8560207 207.227692,34.0919684 207.227692,40.42 C207.227692,46.8040319 205.211713,52.0399796 201.179692,56.128 C197.203673,60.2720207 192.163723,62.344 186.059692,62.344 C179.955662,62.344 174.887713,60.2720207 170.855692,56.128 C166.879673,51.9839793 164.891692,46.7480316 164.891692,40.42 Z M172.619692,40.42 C172.619692,44.8440221 173.90768,48.4279863 176.483692,51.172 C179.059705,53.9160137 182.251673,55.288 186.059692,55.288 C189.867711,55.288 193.05968,53.9160137 195.635692,51.172 C198.211705,48.4279863 199.499692,44.8440221 199.499692,40.42 C199.499692,36.0519782 198.211705,32.4960137 195.635692,29.752 C193.003679,26.951986 189.811711,25.552 186.059692,25.552 C182.307674,25.552 179.115706,26.951986 176.483692,29.752 C173.90768,32.4960137 172.619692,36.0519782 172.619692,40.42 Z M245.040615,49.576 C245.040615,53.1600179 243.472631,56.1839877 240.336615,58.648 C237.2006,61.1120123 233.252639,62.344 228.492615,62.344 C224.348595,62.344 220.708631,61.2660108 217.572615,59.11 C214.4366,56.9539892 212.196622,54.1120176 210.852615,50.584 L217.740615,47.644 C218.748621,50.1080123 220.218606,52.0259931 222.150615,53.398 C224.082625,54.7700069 226.196604,55.456 228.492615,55.456 C230.956628,55.456 233.014607,54.9240053 234.666615,53.86 C236.318624,52.7959947 237.144615,51.5360073 237.144615,50.08 C237.144615,47.4479868 235.128636,45.5160062 231.096615,44.284 L224.040615,42.52 C216.032575,40.5039899 212.028615,36.6400286 212.028615,30.928 C212.028615,27.1759812 213.5546,24.1660113 216.606615,21.898 C219.658631,19.6299887 223.564592,18.496 228.324615,18.496 C231.964634,18.496 235.254601,19.3639913 238.194615,21.1 C241.13463,22.8360087 243.19261,25.1599854 244.368615,28.072 L237.480615,30.928 C236.696612,29.1919913 235.422624,27.8340049 233.658615,26.854 C231.894607,25.8739951 229.920626,25.384 227.736615,25.384 C225.720605,25.384 223.914623,25.887995 222.318615,26.896 C220.722608,27.904005 219.924615,29.1359927 219.924615,30.592 C219.924615,32.9440118 222.136593,34.623995 226.560615,35.632 L232.776615,37.228 C240.952656,39.2440101 245.040615,43.3599689 245.040615,49.576 Z" id="photos" fill="#3A3A3A"></path>
    </g>
</svg>